<svg id="visual" viewBox="0 0 900 600" width="900" height="600" xmlns="http://www.w3.org/2000/svg" xmlns:xlink="http://www.w3.org/1999/xlink" version="1.1"><rect x="0" y="0" width="900" height="600" fill="#1d0021"></rect><path d="M0 371L21.5 382.5C43 394 86 417 128.8 425.2C171.7 433.3 214.3 426.7 257.2 415.3C300 404 343 388 385.8 387.2C428.7 386.3 471.3 400.7 514.2 405C557 409.3 600 403.7 642.8 398.8C685.7 394 728.3 390 771.2 385.7C814 381.3 857 376.7 878.5 374.3L900 372L900 601L878.5 601C857 601 814 601 771.2 601C728.3 601 685.7 601 642.8 601C600 601 557 601 514.2 601C471.3 601 428.7 601 385.8 601C343 601 300 601 257.2 601C214.3 601 171.7 601 128.8 601C86 601 43 601 21.5 601L0 601Z" fill="#a633ac"></path><path d="M0 438L21.5 441.2C43 444.3 86 450.7 128.8 444.7C171.7 438.7 214.3 420.3 257.2 414.3C300 408.3 343 414.7 385.8 415.7C428.7 416.7 471.3 412.3 514.2 417.8C557 423.3 600 438.7 642.8 444.8C685.7 451 728.3 448 771.2 444.8C814 441.7 857 438.3 878.5 436.7L900 435L900 601L878.5 601C857 601 814 601 771.2 601C728.3 601 685.7 601 642.8 601C600 601 557 601 514.2 601C471.3 601 428.7 601 385.8 601C343 601 300 601 257.2 601C214.3 601 171.7 601 128.8 601C86 601 43 601 21.5 601L0 601Z" fill="#892485"></path><path d="M0 456L21.5 464C43 472 86 488 128.8 486.2C171.7 484.3 214.3 464.7 257.2 463.3C300 462 343 479 385.8 484.7C428.7 490.3 471.3 484.7 514.2 485C557 485.3 600 491.7 642.8 491.2C685.7 490.7 728.3 483.3 771.2 473.2C814 463 857 450 878.5 443.5L900 437L900 601L878.5 601C857 601 814 601 771.2 601C728.3 601 685.7 601 642.8 601C600 601 557 601 514.2 601C471.3 601 428.7 601 385.8 601C343 601 300 601 257.2 601C214.3 601 171.7 601 128.8 601C86 601 43 601 21.5 601L0 601Z" fill="#6c1762"></path><path d="M0 513L21.5 517C43 521 86 529 128.8 530.8C171.7 532.7 214.3 528.3 257.2 523.8C300 519.3 343 514.7 385.8 511.2C428.7 507.7 471.3 505.3 514.2 503.3C557 501.3 600 499.7 642.8 499.7C685.7 499.7 728.3 501.3 771.2 498.5C814 495.7 857 488.3 878.5 484.7L900 481L900 601L878.5 601C857 601 814 601 771.2 601C728.3 601 685.7 601 642.8 601C600 601 557 601 514.2 601C471.3 601 428.7 601 385.8 601C343 601 300 601 257.2 601C214.3 601 171.7 601 128.8 601C86 601 43 601 21.5 601L0 601Z" fill="#4e0c42"></path><path d="M0 528L21.5 530.7C43 533.3 86 538.7 128.8 545.8C171.7 553 214.3 562 257.2 562.8C300 563.7 343 556.3 385.8 555.2C428.7 554 471.3 559 514.2 560.7C557 562.3 600 560.7 642.8 555.7C685.7 550.7 728.3 542.3 771.2 541.7C814 541 857 548 878.5 551.5L900 555L900 601L878.5 601C857 601 814 601 771.2 601C728.3 601 685.7 601 642.8 601C600 601 557 601 514.2 601C471.3 601 428.7 601 385.8 601C343 601 300 601 257.2 601C214.3 601 171.7 601 128.8 601C86 601 43 601 21.5 601L0 601Z" fill="#310526"></path></svg>